# xmcd CD database file
#
# Track frame offsets:
#	150
#	14464
#	28604
#	38801
#	52892
#	70794
#	81019
#	91014
#	101427
#	117295
#	130711
#	143897
#	160364
#	172143
#	185015
#	199267
#	212028
#	230919
#	245679
#	259359
#	269919
#	279852
#
# Disc length: 3882 seconds
#
# Revision: 0
# Processed by: cddbd v1.4PL0 Copyright (c) Steve Scherf et al.
# Submitted via: CDex 1.40Beta9
#
DISCID=450f2816
DTITLE=JUST VICKI - It Takes Two
DYEAR=2000
DGENRE=Country
TTITLE0=Every Time You Walk In The Room(3.10)~
TTITLE1=Love Is All Around(3.08)~
TTITLE2=Since I Found You(2.15)~
TTITLE3=Once A DAy(3.07)~
TTITLE4=Will You Still Love Me Tomorrow(3.58)~
TTITLE5=You Made Me Love You(2.16)~
TTITLE6=Strange(2.13)~
TTITLE7=I Can See An Angel(2.18)~
TTITLE8=I Need You Honestly I Do(3.31)~
TTITLE9=Twilight Time(2.58)~
TTITLE10=Far Too Much(2.55)~
TTITLE11=Soulmate(3.39)~
TTITLE12=Unconditional Love(2.37)~
TTITLE13=One Tracked Heart (2.51)~
TTITLE14=Fantasy Lover(3.10)~
TTITLE15=Let Me Be There(2.50)~
TTITLE16=It Has No Name(4.11)~
TTITLE17=I Really Don't Want To Know(3.16)~
TTITLE18=There's No Room For Me(3.02)~
TTITLE19=A Stranger In My Arms(2.20)~
TTITLE20=I'm Gonna Change Everthing(2.12)~
TTITLE21=You Can Have It All(2.30)~
EXTD=YEAR: 2000 ID3G: 2
EXTT0=
EXTT1=
EXTT2=
EXTT3=
EXTT4=
EXTT5=
EXTT6=
EXTT7=
EXTT8=
EXTT9=
EXTT10=
EXTT11=
EXTT12=
EXTT13=
EXTT14=
EXTT15=
EXTT16=
EXTT17=
EXTT18=
EXTT19=
EXTT20=
EXTT21=
PLAYORDER=
